HIERARCHY
ROOT SpineBase
{
  OFFSET 0.000000 0.000000 0.000000
  CHANNELS 6 Xposition Yposition Zposition Zrotation Xrotation Yrotation
  JOINT SpineMid
  {
    OFFSET 0.000000 33.083440 0.000000
    CHANNELS 3 Zrotation Xrotation Yrotation
    JOINT SpineShoulder
    {
      OFFSET 0.558506 24.449675 -0.736504
      CHANNELS 3 Zrotation Xrotation Yrotation
      JOINT Neck
      {
        OFFSET 0.217391 8.111287 -0.567822
        CHANNELS 3 Zrotation Xrotation Yrotation
        JOINT Head
        {
          OFFSET 7.446031 11.801502 3.666229
          CHANNELS 3 Zrotation Xrotation Yrotation
          End Site
          {
            OFFSET 0 0 0
          }
        }
      }
      JOINT ShoulderLeft
      {
        OFFSET -6.978130 -4.256921 -13.524796
        CHANNELS 3 Zrotation Xrotation Yrotation
        JOINT ElbowLeft
        {
          OFFSET -3.043144 -26.338172 -5.886887
          CHANNELS 3 Zrotation Xrotation Yrotation
          JOINT WristLeft
          {
            OFFSET 2.789268 -24.631878 -4.945362
            CHANNELS 3 Zrotation Xrotation Yrotation
            JOINT HandLeft
            {
              OFFSET -0.798320 -7.140341 -1.046572
              CHANNELS 3 Zrotation Xrotation Yrotation
              JOINT HandTipLeft
              {
                OFFSET 0.617556 -6.869031 0.697916
                CHANNELS 3 Zrotation Xrotation Yrotation
                End Site
                {
                  OFFSET 0 0 0
                }
              }
              JOINT ThumbLeft
              {
                OFFSET 3.006626 1.618131 1.469274
                CHANNELS 3 Zrotation Xrotation Yrotation
                End Site
                {
                  OFFSET 0 0 0
                }
              }
            }
          }
        }
      }
      JOINT ShoulderRight
      {
        OFFSET 6.944742 -4.350508 17.376808
        CHANNELS 3 Zrotation Xrotation Yrotation
        JOINT ElbowRight
        {
          OFFSET 2.911066 -28.625685 -0.355173
          CHANNELS 3 Zrotation Xrotation Yrotation
          JOINT WristRight
          {
            OFFSET 2.595232 -24.913329 0.292810
            CHANNELS 3 Zrotation Xrotation Yrotation
            JOINT HandRight
            {
              OFFSET 0.665317 -5.806716 -0.872741
              CHANNELS 3 Zrotation Xrotation Yrotation
              JOINT HandTipRight
              {
                OFFSET 0.258236 -5.967012 -0.836686
                CHANNELS 3 Zrotation Xrotation Yrotation
                End Site
                {
                  OFFSET 0 0 0
                }
              }
              JOINT ThumbRight
              {
                OFFSET 1.400323 -0.013632 -3.151104
                CHANNELS 3 Zrotation Xrotation Yrotation
                End Site
                {
                  OFFSET 0 0 0
                }
              }
            }
          }
        }
      }
    }
  }
  JOINT HipLeft
  {
    OFFSET -2.965918 2.224900 -9.131167
    CHANNELS 3 Zrotation Xrotation Yrotation
    JOINT KneeLeft
    {
      OFFSET -10.680547 -32.488878 -3.901067
      CHANNELS 3 Zrotation Xrotation Yrotation
      JOINT AnkleLeft
      {
        OFFSET -12.296468 -36.839548 0.707271
        CHANNELS 3 Zrotation Xrotation Yrotation
        JOINT FootLeft
        {
          OFFSET 10.088429 -4.077239 -7.655692
          CHANNELS 3 Zrotation Xrotation Yrotation
          End Site
          {
            OFFSET 0 0 0
          }
        }
      }
    }
  }
  JOINT HipRight
  {
    OFFSET 3.609339 -0.325791 1.920498
    CHANNELS 3 Zrotation Xrotation Yrotation
    JOINT KneeRight
    {
      OFFSET -1.841307 -33.816709 7.991041
      CHANNELS 3 Zrotation Xrotation Yrotation
      JOINT AnkleRight
      {
        OFFSET -9.945399 -35.849586 5.726204
        CHANNELS 3 Zrotation Xrotation Yrotation
        JOINT FootRight
        {
          OFFSET 2.089643 -8.335693 -4.810981
          CHANNELS 3 Zrotation Xrotation Yrotation
          End Site
          {
            OFFSET 0 0 0
          }
        }
      }
    }
  }
}
MOTION
Frames: 13
Frame Time: 0.033333
-39.406476 79.455311 296.761608 4.343588 -7.246526 -50.995531 1.389335 0.426715 51.571344 -0.055481 -0.415004 0.281942 8.192455 -4.617702 3.780153 0.000000 0.000000 0.000000 1.042990 6.626870 -2.297453 9.553855 -7.655396 -2.128855 8.489239 -9.014829 4.334934 9.039566 33.996643 -5.426710 0.000000 0.000000 0.000000 0.000000 0.000000 0.000000 8.212415 -29.852721 -1.738256 141.231762 -1.930988 -88.189326 19.662233 18.367312 -57.839131 28.507767 -15.114498 74.736214 0.000000 0.000000 0.000000 0.000000 0.000000 0.000000 -0.262962 16.016175 46.941481 -16.865335 -15.074259 6.184436 0.022522 13.177548 5.156069 0.000000 0.000000 0.000000 -1.524360 6.265207 52.979501 -2.126522 -4.893692 1.229494 10.290394 13.142772 -12.350083 0.000000 0.000000 0.000000
-39.211766 79.461870 296.535263 5.064619 -8.097759 -50.583211 1.512728 0.384276 51.285652 0.000018 -0.396654 0.317305 7.817541 -3.630700 3.369542 0.000000 0.000000 0.000000 -0.266180 7.326462 -2.140544 6.836414 -7.189284 -1.848124 9.190896 -8.458580 3.519990 6.094794 33.406983 -3.873336 0.000000 0.000000 0.000000 0.000000 0.000000 0.000000 6.481251 -30.611697 -2.086906 138.234287 -8.473108 -75.627927 19.558425 11.670433 -55.049621 24.617536 -15.766265 76.038644 0.000000 0.000000 0.000000 0.000000 0.000000 0.000000 -2.052626 16.383133 46.449178 -16.855489 -16.648699 6.492784 -2.258465 12.040366 6.033231 0.000000 0.000000 0.000000 -2.782548 5.957021 52.610244 -1.583522 -5.172020 1.441553 15.900903 17.671794 -15.772007 0.000000 0.000000 0.000000
-38.613348 79.534307 296.368294 5.969923 -8.774030 -50.913822 1.505640 0.397325 51.758128 0.071784 -0.430428 0.360699 7.026784 -2.864823 3.114758 0.000000 0.000000 0.000000 -1.680014 7.697152 -1.941588 4.209316 -6.594817 -1.559316 9.783068 -7.754849 2.728526 3.576010 29.426270 -2.161276 0.000000 0.000000 0.000000 0.000000 0.000000 0.000000 5.367175 -32.107415 -2.228022 135.126040 -16.804595 -61.591335 13.265747 -3.017715 -29.599766 11.284995 -14.605524 52.328521 0.000000 0.000000 0.000000 0.000000 0.000000 0.000000 -4.029727 16.211365 46.857246 -16.723989 -17.932256 6.709567 -3.855391 11.274983 6.776980 0.000000 0.000000 0.000000 -4.777248 5.025424 52.881371 -0.404055 -5.617144 1.768395 20.485104 21.237710 -18.668343 0.000000 0.000000 0.000000
-38.426232 79.551090 295.972350 6.657617 -9.479170 -50.736338 1.403907 0.395944 51.706607 0.129314 -0.455674 0.390776 6.291831 -1.832383 2.696108 0.000000 0.000000 0.000000 -2.605146 7.814168 -1.772772 2.038857 -6.032129 -1.334123 11.201951 -7.359532 2.050869 -0.765189 25.236656 -0.437847 0.000000 0.000000 0.000000 0.000000 0.000000 0.000000 5.118064 -33.181240 -2.246431 131.248730 -24.470329 -46.485438 5.802449 -10.282465 -20.220463 3.851815 -8.396040 27.061015 0.000000 0.000000 0.000000 0.000000 0.000000 0.000000 -5.244095 16.395873 46.674296 -17.151119 -19.058734 6.903492 -4.593561 11.096581 7.193738 0.000000 0.000000 0.000000 -5.649817 4.518091 52.774971 0.047176 -5.479175 1.890710 23.503610 23.572998 -20.780195 0.000000 0.000000 0.000000
-38.215718 79.532071 295.687161 7.236108 -10.118978 -50.458786 1.320789 0.353360 51.549495 0.174086 -0.511551 0.418114 5.155014 -0.347321 2.148166 0.000000 0.000000 0.000000 -3.415108 8.134322 -1.617640 0.214275 -5.475504 -1.082044 13.361576 -7.370775 1.390469 -5.558118 17.502390 1.058125 0.000000 0.000000 0.000000 0.000000 0.000000 0.000000 5.395463 -33.665934 -2.191146 126.263507 -32.994351 -26.405408 1.047801 0.344585 -51.957597 13.121196 -9.162443 46.754158 0.000000 0.000000 0.000000 0.000000 0.000000 0.000000 -6.363848 16.366251 46.484167 -17.435258 -19.920328 6.992718 -4.419402 11.373291 7.144091 0.000000 0.000000 0.000000 -6.427098 4.171911 52.568809 0.366328 -5.416287 1.990594 31.278880 27.919153 -26.163654 0.000000 0.000000 0.000000
-37.901915 79.585626 295.762405 7.832418 -10.995712 -50.059383 1.087260 0.249987 51.302597 0.165689 -0.440800 0.428302 4.163365 1.197997 1.621196 0.000000 0.000000 0.000000 -4.374629 8.863045 -1.380252 -0.143328 -5.710212 -1.078964 14.293700 -7.401520 1.140348 -7.982483 12.865056 1.505988 0.000000 0.000000 0.000000 0.000000 0.000000 0.000000 6.524055 -33.927949 -2.020466 121.349981 -42.264815 -2.891678 6.170327 14.051394 -91.838370 23.814396 -7.374191 71.087075 0.000000 0.000000 0.000000 0.000000 0.000000 0.000000 -8.272198 16.081765 46.343922 -16.956133 -20.715117 7.005227 -3.434558 11.982799 6.473517 0.000000 0.000000 0.000000 -7.798030 4.062920 52.218489 0.826493 -5.649488 2.140239 36.256062 30.293647 -29.760700 0.000000 0.000000 0.000000
-37.839563 79.492268 295.570630 8.002763 -11.382028 -49.684529 1.270077 0.094904 51.006328 0.155091 -0.491714 0.442440 3.231237 2.695367 1.216259 0.000000 0.000000 0.000000 -5.307516 9.632309 -1.071899 -0.557663 -5.665111 -1.043812 15.398861 -9.885830 1.510544 -11.709845 16.692431 1.953847 0.000000 0.000000 0.000000 0.000000 0.000000 0.000000 6.817062 -33.808211 -2.071329 116.780938 -51.419777 21.503970 21.259644 15.075358 -130.055734 27.214979 -5.362367 85.335926 0.000000 0.000000 0.000000 0.000000 0.000000 0.000000 -8.763938 16.067783 46.076472 -17.178643 -21.092448 6.975741 -1.561481 13.085731 5.239259 0.000000 0.000000 0.000000 -7.902802 4.231273 51.935451 0.674421 -5.700856 2.172082 36.437040 30.257821 -30.082026 0.000000 0.000000 0.000000
-37.898259 79.291105 295.359265 7.936384 -11.632309 -49.416529 1.269068 0.087734 50.750575 0.104805 -0.597778 0.452622 2.371309 3.799098 1.039608 0.000000 0.000000 0.000000 -6.063340 10.340299 -0.754190 -0.356231 -5.917460 -1.093828 15.871631 -9.715395 1.280003 -14.572695 19.584914 2.740123 0.000000 0.000000 0.000000 0.000000 0.000000 0.000000 7.195727 -33.657433 -2.108471 112.378274 -58.196442 38.748669 31.566661 4.684125 -159.165749 27.780895 -3.410379 102.406211 0.000000 0.000000 0.000000 0.000000 0.000000 0.000000 -8.895662 16.652185 45.696489 -17.783148 -21.624855 6.981605 1.021968 14.529822 3.753621 0.000000 0.000000 0.000000 -7.513176 4.772495 51.784845 0.120242 -5.781808 2.134021 31.907161 27.400563 -27.147739 0.000000 0.000000 0.000000
-38.014785 78.996920 295.147119 7.695540 -11.675840 -49.418042 1.377111 0.113515 50.720933 0.077005 -0.817285 0.469593 1.728904 4.625497 1.001348 0.000000 0.000000 0.000000 -6.759318 10.876367 -0.410614 0.010712 -5.904164 -1.178525 14.886867 -6.819758 0.532369 -16.684220 21.020655 3.468807 0.000000 0.000000 0.000000 0.000000 0.000000 0.000000 7.346611 -33.295129 -2.203812 108.154687 -63.756470 51.350992 36.673882 -8.189415 174.264144 28.719825 2.178129 128.729119 0.000000 0.000000 0.000000 0.000000 0.000000 0.000000 -8.560552 17.064588 45.606182 -18.340576 -21.704099 6.939253 4.114705 16.175203 2.004270 0.000000 0.000000 0.000000 -6.754722 5.487389 51.893277 -0.689538 -5.835078 2.028841 27.495555 24.137503 -24.393440 0.000000 0.000000 0.000000
-38.229271 78.689310 294.854806 7.247991 -11.527877 -49.249223 1.449269 0.159386 50.472447 -0.074393 -0.913673 0.466960 1.580321 4.897757 1.064666 0.000000 0.000000 0.000000 -7.144853 11.170527 -0.091884 0.634257 -6.025833 -1.289869 13.307915 -3.744703 -0.032347 -13.567063 25.690186 3.354204 0.000000 0.000000 0.000000 0.000000 0.000000 0.000000 7.596126 -33.067273 -2.273863 106.834122 -68.495576 63.098428 38.939253 -17.600444 154.166417 29.288390 6.434498 146.024355 0.000000 0.000000 0.000000 0.000000 0.000000 0.000000 -7.518715 17.426909 45.334864 -18.893880 -21.204385 6.844508 7.490885 17.768278 0.009113 0.000000 0.000000 0.000000 -5.462800 6.373686 51.818973 -1.756574 -5.793806 1.869673 21.260680 19.208630 -20.687703 0.000000 0.000000 0.000000
-38.404548 78.394064 294.454035 6.747678 -11.192532 -48.908846 1.644712 0.161927 50.039323 -0.191781 -0.989569 0.459851 1.265022 5.119124 1.178136 0.000000 0.000000 0.000000 -7.520472 11.372520 0.208548 1.018710 -5.784718 -1.314260 11.925735 2.270478 -1.270758 -11.583162 24.154760 3.462580 0.000000 0.000000 0.000000 0.000000 0.000000 0.000000 7.521065 -32.577018 -2.379904 107.168578 -69.708404 66.402290 36.599042 -22.010425 145.712909 27.073257 6.605948 152.684981 0.000000 0.000000 0.000000 0.000000 0.000000 0.000000 -6.036474 17.177371 45.065204 -19.185344 -20.218505 6.704497 4.865971 16.190283 1.345330 0.000000 0.000000 0.000000 -3.917761 7.040366 51.532253 -2.720552 -5.683159 1.744761 13.749411 12.716180 -16.687233 0.000000 0.000000 0.000000
-38.586191 78.145594 294.016305 6.226686 -10.881809 -49.226517 1.652250 0.285540 50.250824 -0.329418 -0.914858 0.434605 0.806208 5.190181 1.294635 0.000000 0.000000 0.000000 -7.630476 11.210721 0.414781 1.262604 -5.405354 -1.287643 10.164777 6.935986 -1.926110 -7.174683 22.387557 3.353964 0.000000 0.000000 0.000000 0.000000 0.000000 0.000000 8.314850 -34.595433 -2.194505 103.591394 -71.426265 66.300377 35.121233 -30.494001 116.091160 28.333213 12.272562 170.700920 0.000000 0.000000 0.000000 0.000000 0.000000 0.000000 -4.515864 17.037175 45.420643 -19.732790 -19.112159 6.567951 4.921452 15.931509 0.949244 0.000000 0.000000 0.000000 -2.380356 7.657015 51.898318 -3.719665 -5.316794 1.555869 6.006995 5.048222 -13.116625 0.000000 0.000000 0.000000
-38.677671 77.974843 293.714352 5.783466 -10.663910 -49.933843 1.509338 0.421572 50.869878 -0.430490 -0.848793 0.407996 0.308918 5.292759 1.387507 0.000000 0.000000 0.000000 -7.485737 11.032389 0.503278 1.271320 -4.881293 -1.182862 9.199654 9.875862 -2.347829 -4.912856 16.995473 3.389473 0.000000 0.000000 0.000000 0.000000 0.000000 0.000000 8.556868 -34.107545 -2.185200 104.470896 -71.603878 67.934467 34.785646 -29.919968 121.042716 27.813484 9.500051 164.141773 0.000000 0.000000 0.000000 0.000000 0.000000 0.000000 -3.672064 16.695052 46.279087 -19.666043 -18.215265 6.482378 4.844124 15.676253 0.342602 0.000000 0.000000 0.000000 -1.278273 8.271415 52.635593 -4.577818 -5.019758 1.376611 -0.400217 -1.591290 -10.627687 0.000000 0.000000 0.000000
